STARTFONT 2.1
FONT -FontForge-Good Times Rg-Book-R-Normal--16-150-75-75-P-117-ISO10646-1
SIZE 15 75 75
FONTBOUNDINGBOX 31 21 -4 -4
COMMENT "Generated by fontforge, http://fontforge.sourceforge.net"
COMMENT "(c) 1998-2012 Typodermic Fonts Inc. See attached license agreement. If agreement is missing visit typodermicfonts.com for more info. Languages by Chikako Larabie"
STARTPROPERTIES 39
FOUNDRY "FontForge"
FAMILY_NAME "Good Times Rg"
WEIGHT_NAME "Book"
SLANT "R"
SETWIDTH_NAME "Normal"
ADD_STYLE_NAME ""
PIXEL_SIZE 16
POINT_SIZE 150
RESOLUTION_X 75
RESOLUTION_Y 75
SPACING "P"
AVERAGE_WIDTH 117
CHARSET_REGISTRY "ISO10646"
CHARSET_ENCODING "1"
FONTNAME_REGISTRY ""
CHARSET_COLLECTIONS "ISO8859-2 ISO8859-9 ISO8859-4 ISO10646-1"
FONT_NAME "GoodTimesRg-Regular"
FACE_NAME "GoodTimesRg-Regular"
COPYRIGHT "(c) 1998-2012 Typodermic Fonts Inc. See attached license agreement. If agreement is missing visit typodermicfonts.com for more info. Languages by Chikako Larabie"
FONT_VERSION "4.001"
FONT_ASCENT 13
FONT_DESCENT 3
UNDERLINE_POSITION -2
UNDERLINE_THICKNESS 1
X_HEIGHT 11
CAP_HEIGHT 11
RAW_ASCENT 799
RAW_DESCENT 201
NORM_SPACE 5
RELATIVE_WEIGHT 40
RELATIVE_SETWIDTH 50
SUPERSCRIPT_X 0
SUPERSCRIPT_Y 4
SUPERSCRIPT_SIZE 4
SUBSCRIPT_X 0
SUBSCRIPT_Y 0
SUBSCRIPT_SIZE 4
AVG_LOWERCASE_WIDTH 135
AVG_UPPERCASE_WIDTH 134
ENDPROPERTIES
CHARS 304
STARTCHAR space
ENCODING 32
SWIDTH 294 0
DWIDTH 5 0
BBX 1 1 0 0
BITMAP
00
ENDCHAR
STARTCHAR exclam
ENCODING 33
SWIDTH 298 0
DWIDTH 5 0
BBX 3 12 1 0
BITMAP
C0
C0
C0
C0
C0
C0
C0
C0
00
00
E0
C0
ENDCHAR
STARTCHAR quotedbl
ENCODING 34
SWIDTH 452 0
DWIDTH 7 0
BBX 5 4 1 8
BITMAP
D8
D8
D8
D8
ENDCHAR
STARTCHAR numbersign
ENCODING 35
SWIDTH 697 0
DWIDTH 11 0
BBX 10 12 1 0
BITMAP
0980
1980
1100
7FC0
3300
2200
2200
FF00
4400
4400
4C00
CC00
ENDCHAR
STARTCHAR dollar
ENCODING 36
SWIDTH 744 0
DWIDTH 12 0
BBX 10 12 1 0
BITMAP
0400
7FC0
FFC0
C400
C400
7F80
04C0
04C0
04C0
FFC0
FF80
0400
ENDCHAR
STARTCHAR percent
ENCODING 37
SWIDTH 965 0
DWIDTH 15 0
BBX 14 14 1 -1
BITMAP
0010
7020
8860
84C0
8480
8900
7300
0670
0488
0884
1884
3088
2070
4000
ENDCHAR
STARTCHAR ampersand
ENCODING 38
SWIDTH 759 0
DWIDTH 12 0
BBX 11 12 1 0
BITMAP
7C00
FC00
C000
C000
C000
7FC0
FFC0
C180
C180
C180
FFE0
7FE0
ENDCHAR
STARTCHAR quotesingle
ENCODING 39
SWIDTH 255 0
DWIDTH 4 0
BBX 2 4 1 8
BITMAP
C0
C0
C0
C0
ENDCHAR
STARTCHAR parenleft
ENCODING 40
SWIDTH 356 0
DWIDTH 6 0
BBX 4 15 1 -1
BITMAP
30
20
60
40
40
40
40
C0
40
40
40
40
60
20
30
ENDCHAR
STARTCHAR parenright
ENCODING 41
SWIDTH 355 0
DWIDTH 6 0
BBX 3 15 1 -1
BITMAP
C0
40
40
60
20
20
20
20
20
20
20
60
40
40
C0
ENDCHAR
STARTCHAR asterisk
ENCODING 42
SWIDTH 469 0
DWIDTH 8 0
BBX 6 5 1 7
BITMAP
20
A4
F8
30
58
ENDCHAR
STARTCHAR plus
ENCODING 43
SWIDTH 690 0
DWIDTH 11 0
BBX 9 9 1 1
BITMAP
0800
0800
0800
0800
FF80
0800
0800
0800
0800
ENDCHAR
STARTCHAR comma
ENCODING 44
SWIDTH 259 0
DWIDTH 4 0
BBX 2 4 1 -2
BITMAP
C0
C0
C0
80
ENDCHAR
STARTCHAR hyphen
ENCODING 45
SWIDTH 296 0
DWIDTH 5 0
BBX 4 1 0 6
BITMAP
F0
ENDCHAR
STARTCHAR period
ENCODING 46
SWIDTH 262 0
DWIDTH 4 0
BBX 2 2 1 0
BITMAP
C0
C0
ENDCHAR
STARTCHAR slash
ENCODING 47
SWIDTH 444 0
DWIDTH 7 0
BBX 7 12 0 0
BITMAP
06
04
0C
08
08
10
10
30
20
60
40
C0
ENDCHAR
STARTCHAR zero
ENCODING 48
SWIDTH 838 0
DWIDTH 13 0
BBX 12 12 1 0
BITMAP
1F00
3FC0
70E0
C060
C070
C030
C030
C070
E060
70E0
3FC0
1F00
ENDCHAR
STARTCHAR one
ENCODING 49
SWIDTH 385 0
DWIDTH 6 0
BBX 5 12 0 0
BITMAP
F0
F8
18
18
18
18
18
18
18
18
18
18
ENDCHAR
STARTCHAR two
ENCODING 50
SWIDTH 825 0
DWIDTH 13 0
BBX 11 12 1 0
BITMAP
FFC0
FFE0
0060
0060
0060
7FE0
FFC0
C000
C000
C000
FFE0
FFE0
ENDCHAR
STARTCHAR three
ENCODING 51
SWIDTH 827 0
DWIDTH 13 0
BBX 11 12 1 0
BITMAP
FFC0
FFE0
0060
0060
0060
3FC0
3FE0
0060
0060
0060
FFE0
FFC0
ENDCHAR
STARTCHAR four
ENCODING 52
SWIDTH 845 0
DWIDTH 14 0
BBX 12 12 1 0
BITMAP
C0C0
C0C0
C0C0
C0C0
C0C0
C0C0
C0C0
FFF0
7FF0
00C0
00C0
00C0
ENDCHAR
STARTCHAR five
ENCODING 53
SWIDTH 885 0
DWIDTH 14 0
BBX 12 12 1 0
BITMAP
FFF0
FFF0
C000
C000
C000
FFE0
FFF0
0030
0030
0030
FFF0
FFE0
ENDCHAR
STARTCHAR six
ENCODING 54
SWIDTH 872 0
DWIDTH 14 0
BBX 12 12 1 0
BITMAP
3FF0
7FF0
E000
C000
C000
FFE0
FFF0
C030
C030
E030
7FF0
3FE0
ENDCHAR
STARTCHAR seven
ENCODING 55
SWIDTH 756 0
DWIDTH 12 0
BBX 11 12 1 0
BITMAP
FFE0
FFE0
01C0
0180
0300
0700
0E00
1C00
1800
3000
7000
E000
ENDCHAR
STARTCHAR eight
ENCODING 56
SWIDTH 898 0
DWIDTH 14 0
BBX 13 12 1 0
BITMAP
7FE0
FFF0
C030
C030
C030
7FE0
FFF0
C030
C038
C030
FFF0
7FE0
ENDCHAR
STARTCHAR nine
ENCODING 57
SWIDTH 861 0
DWIDTH 14 0
BBX 12 12 1 0
BITMAP
7F80
FFE0
C060
C030
C030
FFF0
7FF0
0030
0030
0060
7FE0
7F80
ENDCHAR
STARTCHAR colon
ENCODING 58
SWIDTH 262 0
DWIDTH 4 0
BBX 2 8 1 0
BITMAP
C0
C0
00
00
00
00
C0
C0
ENDCHAR
STARTCHAR semicolon
ENCODING 59
SWIDTH 262 0
DWIDTH 4 0
BBX 2 9 1 -2
BITMAP
C0
C0
00
00
00
C0
C0
C0
80
ENDCHAR
STARTCHAR less
ENCODING 60
SWIDTH 690 0
DWIDTH 11 0
BBX 9 9 1 2
BITMAP
0080
0180
0F00
3800
E000
E000
3C00
0700
0180
ENDCHAR
STARTCHAR equal
ENCODING 61
SWIDTH 690 0
DWIDTH 11 0
BBX 9 6 1 3
BITMAP
FF80
0000
0000
0000
0000
FF80
ENDCHAR
STARTCHAR greater
ENCODING 62
SWIDTH 690 0
DWIDTH 11 0
BBX 9 9 1 2
BITMAP
8000
C000
7800
0E00
0380
0380
1E00
7000
C000
ENDCHAR
STARTCHAR question
ENCODING 63
SWIDTH 776 0
DWIDTH 12 0
BBX 11 12 1 0
BITMAP
FF80
FFC0
00E0
0060
0060
3FC0
7F80
6000
0000
0000
6000
6000
ENDCHAR
STARTCHAR at
ENCODING 64
SWIDTH 833 0
DWIDTH 13 0
BBX 11 12 1 0
BITMAP
1FE0
3FE0
6020
CF20
9920
9120
9120
9920
CFE0
6000
7FE0
1FE0
ENDCHAR
STARTCHAR A
ENCODING 65
SWIDTH 989 0
DWIDTH 16 0
BBX 16 12 0 0
BITMAP
0180
0380
03C0
07E0
0660
0C70
1C30
19F8
3BFC
300C
600E
E007
ENDCHAR
STARTCHAR B
ENCODING 66
SWIDTH 891 0
DWIDTH 14 0
BBX 12 12 1 0
BITMAP
FFE0
FFF0
C030
C030
C030
DFE0
DFF0
C030
C030
C030
FFF0
FFE0
ENDCHAR
STARTCHAR C
ENCODING 67
SWIDTH 829 0
DWIDTH 13 0
BBX 12 12 1 0
BITMAP
1FF0
7FF0
7000
C000
C000
C000
C000
C000
C000
7000
3FF0
1FF0
ENDCHAR
STARTCHAR D
ENCODING 68
SWIDTH 879 0
DWIDTH 14 0
BBX 12 12 1 0
BITMAP
FF80
FFE0
C0E0
C030
C030
C030
C030
C030
C030
C0E0
FFE0
FF80
ENDCHAR
STARTCHAR E
ENCODING 69
SWIDTH 759 0
DWIDTH 12 0
BBX 10 12 1 0
BITMAP
FFC0
FFC0
C000
C000
C000
CFC0
CFC0
C000
C000
C000
FFC0
FFC0
ENDCHAR
STARTCHAR F
ENCODING 70
SWIDTH 705 0
DWIDTH 11 0
BBX 10 12 1 0
BITMAP
FFC0
FFC0
C000
C000
C000
CF80
CF80
C000
C000
C000
C000
C000
ENDCHAR
STARTCHAR G
ENCODING 71
SWIDTH 888 0
DWIDTH 14 0
BBX 12 12 1 0
BITMAP
1FF0
7FF0
7000
C000
C000
C7F0
C7F0
C030
C030
7030
3FF0
1FF0
ENDCHAR
STARTCHAR H
ENCODING 72
SWIDTH 838 0
DWIDTH 13 0
BBX 11 12 1 0
BITMAP
C060
C060
C060
C060
C060
CFE0
CFE0
C060
C060
C060
C060
C060
ENDCHAR
STARTCHAR I
ENCODING 73
SWIDTH 267 0
DWIDTH 4 0
BBX 2 12 1 0
BITMAP
C0
C0
C0
C0
C0
C0
C0
C0
C0
C0
C0
C0
ENDCHAR
STARTCHAR J
ENCODING 74
SWIDTH 708 0
DWIDTH 11 0
BBX 11 12 0 0
BITMAP
00E0
00E0
00E0
00E0
00E0
00E0
00E0
00C0
00C0
01C0
FF80
FF00
ENDCHAR
STARTCHAR K
ENCODING 75
SWIDTH 875 0
DWIDTH 14 0
BBX 13 12 1 0
BITMAP
C070
C1E0
C380
C700
CE00
D800
DC00
CE00
C700
C1C0
C0E0
C078
ENDCHAR
STARTCHAR L
ENCODING 76
SWIDTH 707 0
DWIDTH 11 0
BBX 10 12 1 0
BITMAP
C000
C000
C000
C000
C000
C000
C000
C000
C000
C000
FFC0
FFC0
ENDCHAR
STARTCHAR M
ENCODING 77
SWIDTH 1115 0
DWIDTH 18 0
BBX 18 12 0 0
BITMAP
080400
1C0E00
1C0E00
1E1E00
361F00
363300
333300
333300
61E180
61E180
60C180
E0C1C0
ENDCHAR
STARTCHAR N
ENCODING 78
SWIDTH 873 0
DWIDTH 14 0
BBX 12 12 1 0
BITMAP
C030
E030
F030
F830
DC30
CE30
C730
C3B0
C1F0
C0F0
C070
C030
ENDCHAR
STARTCHAR O
ENCODING 79
SWIDTH 968 0
DWIDTH 15 0
BBX 14 12 1 0
BITMAP
1FE0
7FF0
7038
C018
C00C
C00C
C00C
C00C
C018
7038
3FF0
1FE0
ENDCHAR
STARTCHAR P
ENCODING 80
SWIDTH 867 0
DWIDTH 14 0
BBX 12 12 1 0
BITMAP
FFC0
FFF0
C030
C030
C030
C030
C030
CFF0
CFC0
C000
C000
C000
ENDCHAR
STARTCHAR Q
ENCODING 81
SWIDTH 968 0
DWIDTH 15 0
BBX 14 12 1 0
BITMAP
1FE0
7FF0
7038
C018
C00C
C00C
C00C
C38C
C0D8
7078
3FF8
1FFC
ENDCHAR
STARTCHAR R
ENCODING 82
SWIDTH 921 0
DWIDTH 15 0
BBX 14 12 1 0
BITMAP
FFE0
FFF0
C030
C038
C018
C038
C030
CFF0
CFC0
C0E0
C070
C03C
ENDCHAR
STARTCHAR S
ENCODING 83
SWIDTH 880 0
DWIDTH 14 0
BBX 12 12 1 0
BITMAP
7FF0
FFF0
C000
C000
C000
FFE0
7FF0
0030
0030
0030
FFF0
FFE0
ENDCHAR
STARTCHAR T
ENCODING 84
SWIDTH 720 0
DWIDTH 12 0
BBX 11 12 0 0
BITMAP
FFE0
FFE0
0600
0600
0600
0600
0600
0600
0600
0600
0600
0600
ENDCHAR
STARTCHAR U
ENCODING 85
SWIDTH 889 0
DWIDTH 14 0
BBX 12 12 1 0
BITMAP
C030
C030
C030
C030
C030
C030
C030
C030
C030
E070
7FE0
1FC0
ENDCHAR
STARTCHAR V
ENCODING 86
SWIDTH 989 0
DWIDTH 16 0
BBX 16 12 0 0
BITMAP
E007
700E
300C
381C
1818
1C30
0C30
0660
07E0
03C0
0380
0180
ENDCHAR
STARTCHAR W
ENCODING 87
SWIDTH 1268 0
DWIDTH 20 0
BBX 20 12 0 0
BITMAP
E38030
618060
31C0E0
30C0C0
18E1C0
186180
0C7380
0EF300
06FF00
079E00
039C00
030C00
ENDCHAR
STARTCHAR X
ENCODING 88
SWIDTH 1000 0
DWIDTH 16 0
BBX 16 12 0 0
BITMAP
700E
381C
1C38
0E70
07E0
03C0
03C0
06E0
0C70
1838
301C
E00F
ENDCHAR
STARTCHAR Y
ENCODING 89
SWIDTH 926 0
DWIDTH 15 0
BBX 15 12 0 0
BITMAP
E00E
7018
3838
1C70
0EE0
06C0
0380
0300
0300
0300
0300
0300
ENDCHAR
STARTCHAR Z
ENCODING 90
SWIDTH 802 0
DWIDTH 13 0
BBX 11 12 1 0
BITMAP
FFE0
FFE0
01C0
0380
0700
0E00
0C00
1800
3000
6000
FFE0
FFE0
ENDCHAR
STARTCHAR bracketleft
ENCODING 91
SWIDTH 333 0
DWIDTH 5 0
BBX 2 15 2 -1
BITMAP
C0
80
80
80
80
80
80
80
80
80
80
80
80
80
C0
ENDCHAR
STARTCHAR backslash
ENCODING 92
SWIDTH 445 0
DWIDTH 7 0
BBX 7 12 0 0
BITMAP
C0
40
60
20
30
10
10
08
08
0C
04
06
ENDCHAR
STARTCHAR bracketright
ENCODING 93
SWIDTH 333 0
DWIDTH 5 0
BBX 3 15 1 -1
BITMAP
E0
60
60
60
60
60
60
60
60
60
60
60
60
60
E0
ENDCHAR
STARTCHAR asciicircum
ENCODING 94
SWIDTH 559 0
DWIDTH 9 0
BBX 7 7 1 5
BITMAP
10
38
28
68
44
44
C6
ENDCHAR
STARTCHAR underscore
ENCODING 95
SWIDTH 668 0
DWIDTH 11 0
BBX 11 1 0 -3
BITMAP
FFE0
ENDCHAR
STARTCHAR grave
ENCODING 96
SWIDTH 362 0
DWIDTH 6 0
BBX 4 2 1 13
BITMAP
80
70
ENDCHAR
STARTCHAR a
ENCODING 97
SWIDTH 989 0
DWIDTH 16 0
BBX 16 12 0 0
BITMAP
0180
0380
03C0
07E0
0660
0C70
1C30
19F8
3BFC
300C
600E
E007
ENDCHAR
STARTCHAR b
ENCODING 98
SWIDTH 891 0
DWIDTH 14 0
BBX 12 12 1 0
BITMAP
FFE0
FFF0
C030
C030
C030
DFE0
DFF0
C030
C030
C030
FFF0
FFE0
ENDCHAR
STARTCHAR c
ENCODING 99
SWIDTH 829 0
DWIDTH 13 0
BBX 12 12 1 0
BITMAP
1FF0
7FF0
7000
C000
C000
C000
C000
C000
C000
7000
3FF0
1FF0
ENDCHAR
STARTCHAR d
ENCODING 100
SWIDTH 879 0
DWIDTH 14 0
BBX 12 12 1 0
BITMAP
FF80
FFE0
C0E0
C030
C030
C030
C030
C030
C030
C0E0
FFE0
FF80
ENDCHAR
STARTCHAR e
ENCODING 101
SWIDTH 759 0
DWIDTH 12 0
BBX 10 12 1 0
BITMAP
FFC0
FFC0
C000
C000
C000
CFC0
CFC0
C000
C000
C000
FFC0
FFC0
ENDCHAR
STARTCHAR f
ENCODING 102
SWIDTH 705 0
DWIDTH 11 0
BBX 10 12 1 0
BITMAP
FFC0
FFC0
C000
C000
C000
CF80
CF80
C000
C000
C000
C000
C000
ENDCHAR
STARTCHAR g
ENCODING 103
SWIDTH 888 0
DWIDTH 14 0
BBX 12 12 1 0
BITMAP
1FF0
7FF0
7000
C000
C000
C7F0
C7F0
C030
C030
7030
3FF0
1FF0
ENDCHAR
STARTCHAR h
ENCODING 104
SWIDTH 838 0
DWIDTH 13 0
BBX 11 12 1 0
BITMAP
C060
C060
C060
C060
C060
CFE0
CFE0
C060
C060
C060
C060
C060
ENDCHAR
STARTCHAR i
ENCODING 105
SWIDTH 267 0
DWIDTH 4 0
BBX 2 12 1 0
BITMAP
C0
C0
C0
C0
C0
C0
C0
C0
C0
C0
C0
C0
ENDCHAR
STARTCHAR j
ENCODING 106
SWIDTH 708 0
DWIDTH 11 0
BBX 11 12 0 0
BITMAP
00E0
00E0
00E0
00E0
00E0
00E0
00E0
00C0
00C0
01C0
FF80
FF00
ENDCHAR
STARTCHAR k
ENCODING 107
SWIDTH 875 0
DWIDTH 14 0
BBX 13 12 1 0
BITMAP
C070
C1E0
C380
C700
CE00
D800
DC00
CE00
C700
C1C0
C0E0
C078
ENDCHAR
STARTCHAR l
ENCODING 108
SWIDTH 707 0
DWIDTH 11 0
BBX 10 12 1 0
BITMAP
C000
C000
C000
C000
C000
C000
C000
C000
C000
C000
FFC0
FFC0
ENDCHAR
STARTCHAR m
ENCODING 109
SWIDTH 1115 0
DWIDTH 18 0
BBX 18 12 0 0
BITMAP
080400
1C0E00
1C0E00
1E1E00
361F00
363300
333300
333300
61E180
61E180
60C180
E0C1C0
ENDCHAR
STARTCHAR n
ENCODING 110
SWIDTH 873 0
DWIDTH 14 0
BBX 12 12 1 0
BITMAP
C030
E030
F030
F830
DC30
CE30
C730
C3B0
C1F0
C0F0
C070
C030
ENDCHAR
STARTCHAR o
ENCODING 111
SWIDTH 968 0
DWIDTH 15 0
BBX 14 12 1 0
BITMAP
1FE0
7FF0
7038
C018
C00C
C00C
C00C
C00C
C018
7038
3FF0
1FE0
ENDCHAR
STARTCHAR p
ENCODING 112
SWIDTH 867 0
DWIDTH 14 0
BBX 12 12 1 0
BITMAP
FFC0
FFF0
C030
C030
C030
C030
C030
CFF0
CFC0
C000
C000
C000
ENDCHAR
STARTCHAR q
ENCODING 113
SWIDTH 968 0
DWIDTH 15 0
BBX 14 12 1 0
BITMAP
1FE0
7FF0
7038
C018
C00C
C00C
C00C
C38C
C0D8
7078
3FF8
1FFC
ENDCHAR
STARTCHAR r
ENCODING 114
SWIDTH 921 0
DWIDTH 15 0
BBX 14 12 1 0
BITMAP
FFE0
FFF0
C030
C038
C018
C038
C030
CFF0
CFC0
C0E0
C070
C03C
ENDCHAR
STARTCHAR s
ENCODING 115
SWIDTH 880 0
DWIDTH 14 0
BBX 12 12 1 0
BITMAP
7FF0
FFF0
C000
C000
C000
FFE0
7FF0
0030
0030
0030
FFF0
FFE0
ENDCHAR
STARTCHAR t
ENCODING 116
SWIDTH 720 0
DWIDTH 12 0
BBX 11 12 0 0
BITMAP
FFE0
FFE0
0600
0600
0600
0600
0600
0600
0600
0600
0600
0600
ENDCHAR
STARTCHAR u
ENCODING 117
SWIDTH 889 0
DWIDTH 14 0
BBX 12 12 1 0
BITMAP
C030
C030
C030
C030
C030
C030
C030
C030
C030
E070
7FE0
1FC0
ENDCHAR
STARTCHAR v
ENCODING 118
SWIDTH 989 0
DWIDTH 16 0
BBX 16 12 0 0
BITMAP
E007
700E
300C
381C
1818
1C30
0C30
0660
07E0
03C0
0380
0180
ENDCHAR
STARTCHAR w
ENCODING 119
SWIDTH 1268 0
DWIDTH 20 0
BBX 20 12 0 0
BITMAP
E38030
618060
31C0E0
30C0C0
18E1C0
186180
0C7380
0EF300
06FF00
079E00
039C00
030C00
ENDCHAR
STARTCHAR x
ENCODING 120
SWIDTH 1000 0
DWIDTH 16 0
BBX 16 12 0 0
BITMAP
700E
381C
1C38
0E70
07E0
03C0
03C0
06E0
0C70
1838
301C
E00F
ENDCHAR
STARTCHAR y
ENCODING 121
SWIDTH 926 0
DWIDTH 15 0
BBX 15 12 0 0
BITMAP
E00E
7018
3838
1C70
0EE0
06C0
0380
0300
0300
0300
0300
0300
ENDCHAR
STARTCHAR z
ENCODING 122
SWIDTH 802 0
DWIDTH 13 0
BBX 11 12 1 0
BITMAP
FFE0
FFE0
01C0
0380
0700
0E00
0C00
1800
3000
6000
FFE0
FFE0
ENDCHAR
STARTCHAR braceleft
ENCODING 123
SWIDTH 337 0
DWIDTH 5 0
BBX 3 15 1 -1
BITMAP
60
40
40
40
40
40
40
C0
40
40
40
40
40
40
60
ENDCHAR
STARTCHAR bar
ENCODING 124
SWIDTH 297 0
DWIDTH 5 0
BBX 1 15 2 -1
BITMAP
80
80
80
80
80
80
80
80
80
80
80
80
80
80
80
ENDCHAR
STARTCHAR braceright
ENCODING 125
SWIDTH 337 0
DWIDTH 5 0
BBX 3 15 1 -1
BITMAP
C0
60
60
60
60
60
60
20
60
60
60
60
60
60
C0
ENDCHAR
STARTCHAR asciitilde
ENCODING 126
SWIDTH 691 0
DWIDTH 11 0
BBX 9 2 1 5
BITMAP
F080
8F80
ENDCHAR
STARTCHAR nonbreakingspace
ENCODING 160
SWIDTH 294 0
DWIDTH 5 0
BBX 1 1 0 0
BITMAP
00
ENDCHAR
STARTCHAR exclamdown
ENCODING 161
SWIDTH 298 0
DWIDTH 5 0
BBX 3 12 1 0
BITMAP
C0
E0
00
00
C0
C0
C0
C0
C0
C0
C0
C0
ENDCHAR
STARTCHAR cent
ENCODING 162
SWIDTH 692 0
DWIDTH 11 0
BBX 9 12 1 0
BITMAP
0400
3F80
7F80
E400
C400
8400
8400
C400
E400
7F80
3F80
0400
ENDCHAR
STARTCHAR sterling
ENCODING 163
SWIDTH 709 0
DWIDTH 11 0
BBX 11 12 0 0
BITMAP
1F80
3F80
3000
3000
3000
7E00
7E00
3000
3000
3000
FFE0
FFE0
ENDCHAR
STARTCHAR yen
ENCODING 165
SWIDTH 787 0
DWIDTH 13 0
BBX 12 12 0 0
BITMAP
E030
7060
30E0
38C0
1980
0D80
0F00
3FE0
0600
3FE0
0600
0600
ENDCHAR
STARTCHAR brokenbar
ENCODING 166
SWIDTH 297 0
DWIDTH 5 0
BBX 1 15 2 -1
BITMAP
80
80
80
80
80
80
80
00
80
80
80
80
80
80
80
ENDCHAR
STARTCHAR section
ENCODING 167
SWIDTH 773 0
DWIDTH 12 0
BBX 10 15 1 -3
BITMAP
7F80
FF80
C000
C000
C000
FF80
7FC0
C0C0
C0C0
7F80
7FC0
00C0
00C0
7FC0
7F80
ENDCHAR
STARTCHAR dieresis
ENCODING 168
SWIDTH 393 0
DWIDTH 6 0
BBX 4 2 1 13
BITMAP
90
90
ENDCHAR
STARTCHAR copyright
ENCODING 169
SWIDTH 829 0
DWIDTH 13 0
BBX 12 12 1 0
BITMAP
1F00
20C0
4040
8F20
9010
9010
9010
9010
8F20
4040
20C0
1F00
ENDCHAR
STARTCHAR ordfeminine
ENCODING 170
SWIDTH 604 0
DWIDTH 10 0
BBX 8 7 1 5
BITMAP
10
18
2C
64
5E
82
81
ENDCHAR
STARTCHAR guillemotleft
ENCODING 171
SWIDTH 629 0
DWIDTH 10 0
BBX 8 6 1 3
BITMAP
11
62
8C
CC
23
11
ENDCHAR
STARTCHAR registered
ENCODING 174
SWIDTH 585 0
DWIDTH 9 0
BBX 7 8 1 4
BITMAP
38
46
BA
A6
BA
A6
46
38
ENDCHAR
STARTCHAR macron
ENCODING 175
SWIDTH 362 0
DWIDTH 6 0
BBX 4 1 1 13
BITMAP
F0
ENDCHAR
STARTCHAR degree
ENCODING 176
SWIDTH 361 0
DWIDTH 6 0
BBX 4 5 1 7
BITMAP
E0
90
90
90
E0
ENDCHAR
STARTCHAR plusminus
ENCODING 177
SWIDTH 690 0
DWIDTH 11 0
BBX 9 10 1 0
BITMAP
0800
0800
0800
0800
FF80
0800
0800
0800
0800
FF80
ENDCHAR
STARTCHAR twosuperior
ENCODING 178
SWIDTH 442 0
DWIDTH 7 0
BBX 5 6 1 6
BITMAP
F8
08
F8
80
80
F8
ENDCHAR
STARTCHAR threesuperior
ENCODING 179
SWIDTH 443 0
DWIDTH 7 0
BBX 5 6 1 6
BITMAP
F8
08
78
08
08
F8
ENDCHAR
STARTCHAR acute
ENCODING 180
SWIDTH 362 0
DWIDTH 6 0
BBX 4 2 1 13
BITMAP
30
E0
ENDCHAR
STARTCHAR paragraph
ENCODING 182
SWIDTH 629 0
DWIDTH 10 0
BBX 8 14 1 -2
BITMAP
7F
F9
F9
F9
F9
19
19
19
19
19
19
19
19
19
ENDCHAR
STARTCHAR periodcentered
ENCODING 183
SWIDTH 262 0
DWIDTH 4 0
BBX 2 2 1 5
BITMAP
C0
C0
ENDCHAR
STARTCHAR cedilla
ENCODING 184
SWIDTH 219 0
DWIDTH 4 0
BBX 2 3 1 -4
BITMAP
C0
80
80
ENDCHAR
STARTCHAR onesuperior
ENCODING 185
SWIDTH 222 0
DWIDTH 4 0
BBX 3 6 0 6
BITMAP
C0
20
20
20
20
20
ENDCHAR
STARTCHAR ordmasculine
ENCODING 186
SWIDTH 592 0
DWIDTH 9 0
BBX 8 7 1 5
BITMAP
7C
C2
83
81
83
C2
7C
ENDCHAR
STARTCHAR guillemotright
ENCODING 187
SWIDTH 629 0
DWIDTH 10 0
BBX 8 6 1 3
BITMAP
88
46
31
33
C4
88
ENDCHAR
STARTCHAR onequarter
ENCODING 188
SWIDTH 972 0
DWIDTH 16 0
BBX 14 14 1 -1
BITMAP
0030
6040
20C0
2080
2100
2200
2600
0488
0888
1088
30FC
2008
4008
8000
ENDCHAR
STARTCHAR onehalf
ENCODING 189
SWIDTH 948 0
DWIDTH 15 0
BBX 14 14 1 -1
BITMAP
0030
6040
20C0
2080
2100
2200
2600
04F8
080C
10F8
3080
2080
40F8
8000
ENDCHAR
STARTCHAR threequarters
ENCODING 190
SWIDTH 1029 0
DWIDTH 16 0
BBX 15 14 1 -1
BITMAP
0010
F820
0860
78C0
0C80
0900
FB00
0644
0444
0844
187E
3004
2004
4000
ENDCHAR
STARTCHAR questiondown
ENCODING 191
SWIDTH 776 0
DWIDTH 12 0
BBX 12 12 0 0
BITMAP
0060
0060
0000
0000
0060
3FC0
7FC0
6000
E000
6000
7FF0
3FF0
ENDCHAR
STARTCHAR Agrave
ENCODING 192
SWIDTH 989 0
DWIDTH 16 0
BBX 16 15 0 0
BITMAP
0600
0380
0000
0180
0380
03C0
07E0
0660
0C70
1C30
19F8
3BFC
300C
600E
E007
ENDCHAR
STARTCHAR Aacute
ENCODING 193
SWIDTH 989 0
DWIDTH 16 0
BBX 16 15 0 0
BITMAP
0040
03C0
0000
0180
0380
03C0
07E0
0660
0C70
1C30
19F8
3BFC
300C
600E
E007
ENDCHAR
STARTCHAR Acircumflex
ENCODING 194
SWIDTH 989 0
DWIDTH 16 0
BBX 16 15 0 0
BITMAP
0180
02C0
0000
0180
0380
03C0
07E0
0660
0C70
1C30
19F8
3BFC
300C
600E
E007
ENDCHAR
STARTCHAR Atilde
ENCODING 195
SWIDTH 989 0
DWIDTH 16 0
BBX 16 15 0 0
BITMAP
0340
04C0
0000
0180
0380
03C0
07E0
0660
0C70
1C30
19F8
3BFC
300C
600E
E007
ENDCHAR
STARTCHAR Adieresis
ENCODING 196
SWIDTH 989 0
DWIDTH 16 0
BBX 16 15 0 0
BITMAP
0240
0240
0000
0180
0380
03C0
07E0
0660
0C70
1C30
19F8
3BFC
300C
600E
E007
ENDCHAR
STARTCHAR Aring
ENCODING 197
SWIDTH 989 0
DWIDTH 16 0
BBX 16 17 0 0
BITMAP
0380
0240
0240
0380
0000
0180
0380
03C0
07E0
0660
0C70
1C30
19F8
3BFC
300C
600E
E007
ENDCHAR
STARTCHAR AE
ENCODING 198
SWIDTH 1345 0
DWIDTH 22 0
BBX 21 12 0 0
BITMAP
01FFF8
03FFF8
031800
061800
0E1800
0C19F0
1C19F0
19F800
33F800
301800
601FF8
E01FF8
ENDCHAR
STARTCHAR Ccedilla
ENCODING 199
SWIDTH 829 0
DWIDTH 13 0
BBX 12 16 1 -4
BITMAP
1FF0
7FF0
7000
C000
C000
C000
C000
C000
C000
7000
3FF0
1FF0
0000
0600
0400
0400
ENDCHAR
STARTCHAR Egrave
ENCODING 200
SWIDTH 759 0
DWIDTH 12 0
BBX 10 15 1 0
BITMAP
1000
1E00
0000
FFC0
FFC0
C000
C000
C000
CFC0
CFC0
C000
C000
C000
FFC0
FFC0
ENDCHAR
STARTCHAR Eacute
ENCODING 201
SWIDTH 759 0
DWIDTH 12 0
BBX 10 15 1 0
BITMAP
0300
1E00
0000
FFC0
FFC0
C000
C000
C000
CFC0
CFC0
C000
C000
C000
FFC0
FFC0
ENDCHAR
STARTCHAR Ecircumflex
ENCODING 202
SWIDTH 759 0
DWIDTH 12 0
BBX 10 15 1 0
BITMAP
0C00
1A00
0000
FFC0
FFC0
C000
C000
C000
CFC0
CFC0
C000
C000
C000
FFC0
FFC0
ENDCHAR
STARTCHAR Edieresis
ENCODING 203
SWIDTH 759 0
DWIDTH 12 0
BBX 10 15 1 0
BITMAP
1200
1200
0000
FFC0
FFC0
C000
C000
C000
CFC0
CFC0
C000
C000
C000
FFC0
FFC0
ENDCHAR
STARTCHAR Igrave
ENCODING 204
SWIDTH 267 0
DWIDTH 4 0
BBX 4 15 0 0
BITMAP
80
F0
00
60
60
60
60
60
60
60
60
60
60
60
60
ENDCHAR
STARTCHAR Iacute
ENCODING 205
SWIDTH 267 0
DWIDTH 4 0
BBX 4 15 1 0
BITMAP
30
E0
00
C0
C0
C0
C0
C0
C0
C0
C0
C0
C0
C0
C0
ENDCHAR
STARTCHAR Icircumflex
ENCODING 206
SWIDTH 267 0
DWIDTH 4 0
BBX 4 15 0 0
BITMAP
60
50
80
60
60
60
60
60
60
60
60
60
60
60
60
ENDCHAR
STARTCHAR Idieresis
ENCODING 207
SWIDTH 267 0
DWIDTH 4 0
BBX 4 15 0 0
BITMAP
D0
90
00
60
60
60
60
60
60
60
60
60
60
60
60
ENDCHAR
STARTCHAR Eth
ENCODING 208
SWIDTH 877 0
DWIDTH 14 0
BBX 13 12 0 0
BITMAP
7FC0
7FF0
6070
6018
6018
FF18
FF18
6018
6018
6070
7FF0
7FC0
ENDCHAR
STARTCHAR Ntilde
ENCODING 209
SWIDTH 873 0
DWIDTH 14 0
BBX 12 15 1 0
BITMAP
0D00
0B00
0000
C030
E030
F030
F830
DC30
CE30
C730
C3B0
C1F0
C0F0
C070
C030
ENDCHAR
STARTCHAR Ograve
ENCODING 210
SWIDTH 968 0
DWIDTH 15 0
BBX 14 15 1 0
BITMAP
0C00
0700
0000
1FE0
7FF0
7038
C018
C00C
C00C
C00C
C00C
C018
7038
3FF0
1FE0
ENDCHAR
STARTCHAR Oacute
ENCODING 211
SWIDTH 968 0
DWIDTH 15 0
BBX 14 15 1 0
BITMAP
0080
0780
0000
1FE0
7FF0
7038
C018
C00C
C00C
C00C
C00C
C018
7038
3FF0
1FE0
ENDCHAR
STARTCHAR Ocircumflex
ENCODING 212
SWIDTH 968 0
DWIDTH 15 0
BBX 14 15 1 0
BITMAP
0300
0500
0080
1FE0
7FF0
7038
C018
C00C
C00C
C00C
C00C
C018
7038
3FF0
1FE0
ENDCHAR
STARTCHAR Otilde
ENCODING 213
SWIDTH 968 0
DWIDTH 15 0
BBX 14 15 1 0
BITMAP
0680
0980
0000
1FE0
7FF0
7038
C018
C00C
C00C
C00C
C00C
C018
7038
3FF0
1FE0
ENDCHAR
STARTCHAR Odieresis
ENCODING 214
SWIDTH 968 0
DWIDTH 15 0
BBX 14 15 1 0
BITMAP
0D80
0480
0000
1FE0
7FF0
7038
C018
C00C
C00C
C00C
C00C
C018
7038
3FF0
1FE0
ENDCHAR
STARTCHAR multiply
ENCODING 215
SWIDTH 690 0
DWIDTH 11 0
BBX 7 8 2 2
BITMAP
82
C6
6C
38
38
6C
C6
82
ENDCHAR
STARTCHAR Oslash
ENCODING 216
SWIDTH 968 0
DWIDTH 15 0
BBX 14 14 1 -1
BITMAP
0018
1FF0
7FF0
7078
C098
C08C
C10C
C20C
C40C
C818
7838
3FF0
3FE0
4000
ENDCHAR
STARTCHAR Ugrave
ENCODING 217
SWIDTH 889 0
DWIDTH 14 0
BBX 12 15 1 0
BITMAP
0800
0F00
0000
C030
C030
C030
C030
C030
C030
C030
C030
C030
E070
7FE0
1FC0
ENDCHAR
STARTCHAR Uacute
ENCODING 218
SWIDTH 889 0
DWIDTH 14 0
BBX 12 15 1 0
BITMAP
0180
0700
0000
C030
C030
C030
C030
C030
C030
C030
C030
C030
E070
7FE0
1FC0
ENDCHAR
STARTCHAR Ucircumflex
ENCODING 219
SWIDTH 889 0
DWIDTH 14 0
BBX 12 15 1 0
BITMAP
0600
0D00
0000
C030
C030
C030
C030
C030
C030
C030
C030
C030
E070
7FE0
1FC0
ENDCHAR
STARTCHAR Udieresis
ENCODING 220
SWIDTH 889 0
DWIDTH 14 0
BBX 12 15 1 0
BITMAP
0900
0900
0000
C030
C030
C030
C030
C030
C030
C030
C030
C030
E070
7FE0
1FC0
ENDCHAR
STARTCHAR Yacute
ENCODING 221
SWIDTH 926 0
DWIDTH 15 0
BBX 15 15 0 0
BITMAP
0040
0380
0000
E00E
7018
3838
1C70
0EE0
06C0
0380
0300
0300
0300
0300
0300
ENDCHAR
STARTCHAR Thorn
ENCODING 222
SWIDTH 843 0
DWIDTH 13 0
BBX 12 12 1 0
BITMAP
C000
C000
FFC0
FFE0
C070
C030
C030
C070
CFE0
CFC0
C000
C000
ENDCHAR
STARTCHAR germandbls
ENCODING 223
SWIDTH 1760 0
DWIDTH 28 0
BBX 26 12 1 0
BITMAP
7FF1FFC0
FFF3FFC0
C0030000
C0030000
C0030000
FFE3FF80
7FF1FFC0
003000C0
003000C0
003000C0
FFF3FFC0
FFE3FF80
ENDCHAR
STARTCHAR agrave
ENCODING 224
SWIDTH 989 0
DWIDTH 16 0
BBX 16 15 0 0
BITMAP
0600
0380
0000
0180
0380
03C0
07E0
0660
0C70
1C30
19F8
3BFC
300C
600E
E007
ENDCHAR
STARTCHAR aacute
ENCODING 225
SWIDTH 989 0
DWIDTH 16 0
BBX 16 15 0 0
BITMAP
0040
03C0
0000
0180
0380
03C0
07E0
0660
0C70
1C30
19F8
3BFC
300C
600E
E007
ENDCHAR
STARTCHAR acircumflex
ENCODING 226
SWIDTH 989 0
DWIDTH 16 0
BBX 16 15 0 0
BITMAP
0180
02C0
0000
0180
0380
03C0
07E0
0660
0C70
1C30
19F8
3BFC
300C
600E
E007
ENDCHAR
STARTCHAR atilde
ENCODING 227
SWIDTH 989 0
DWIDTH 16 0
BBX 16 15 0 0
BITMAP
0340
04C0
0000
0180
0380
03C0
07E0
0660
0C70
1C30
19F8
3BFC
300C
600E
E007
ENDCHAR
STARTCHAR adieresis
ENCODING 228
SWIDTH 989 0
DWIDTH 16 0
BBX 16 15 0 0
BITMAP
0240
0240
0000
0180
0380
03C0
07E0
0660
0C70
1C30
19F8
3BFC
300C
600E
E007
ENDCHAR
STARTCHAR aring
ENCODING 229
SWIDTH 989 0
DWIDTH 16 0
BBX 16 17 0 0
BITMAP
0380
0240
0240
0380
0000
0180
0380
03C0
07E0
0660
0C70
1C30
19F8
3BFC
300C
600E
E007
ENDCHAR
STARTCHAR ae
ENCODING 230
SWIDTH 1345 0
DWIDTH 22 0
BBX 21 12 0 0
BITMAP
01FFF8
03FFF8
031800
061800
0E1800
0C19F0
1C19F0
19F800
33F800
301800
601FF8
E01FF8
ENDCHAR
STARTCHAR ccedilla
ENCODING 231
SWIDTH 829 0
DWIDTH 13 0
BBX 12 16 1 -4
BITMAP
1FF0
7FF0
7000
C000
C000
C000
C000
C000
C000
7000
3FF0
1FF0
0000
0600
0400
0400
ENDCHAR
STARTCHAR egrave
ENCODING 232
SWIDTH 759 0
DWIDTH 12 0
BBX 10 15 1 0
BITMAP
1000
1E00
0000
FFC0
FFC0
C000
C000
C000
CFC0
CFC0
C000
C000
C000
FFC0
FFC0
ENDCHAR
STARTCHAR eacute
ENCODING 233
SWIDTH 759 0
DWIDTH 12 0
BBX 10 15 1 0
BITMAP
0300
1E00
0000
FFC0
FFC0
C000
C000
C000
CFC0
CFC0
C000
C000
C000
FFC0
FFC0
ENDCHAR
STARTCHAR ecircumflex
ENCODING 234
SWIDTH 759 0
DWIDTH 12 0
BBX 10 15 1 0
BITMAP
0C00
1A00
0000
FFC0
FFC0
C000
C000
C000
CFC0
CFC0
C000
C000
C000
FFC0
FFC0
ENDCHAR
STARTCHAR edieresis
ENCODING 235
SWIDTH 759 0
DWIDTH 12 0
BBX 10 15 1 0
BITMAP
1200
1200
0000
FFC0
FFC0
C000
C000
C000
CFC0
CFC0
C000
C000
C000
FFC0
FFC0
ENDCHAR
STARTCHAR igrave
ENCODING 236
SWIDTH 267 0
DWIDTH 4 0
BBX 4 15 0 0
BITMAP
80
F0
00
60
60
60
60
60
60
60
60
60
60
60
60
ENDCHAR
STARTCHAR iacute
ENCODING 237
SWIDTH 267 0
DWIDTH 4 0
BBX 4 15 1 0
BITMAP
30
E0
00
C0
C0
C0
C0
C0
C0
C0
C0
C0
C0
C0
C0
ENDCHAR
STARTCHAR icircumflex
ENCODING 238
SWIDTH 267 0
DWIDTH 4 0
BBX 4 15 0 0
BITMAP
60
50
80
60
60
60
60
60
60
60
60
60
60
60
60
ENDCHAR
STARTCHAR idieresis
ENCODING 239
SWIDTH 267 0
DWIDTH 4 0
BBX 4 15 0 0
BITMAP
D0
90
00
60
60
60
60
60
60
60
60
60
60
60
60
ENDCHAR
STARTCHAR eth
ENCODING 240
SWIDTH 877 0
DWIDTH 14 0
BBX 13 12 0 0
BITMAP
7FC0
7FF0
6070
6018
6018
FF18
FF18
6018
6018
6070
7FF0
7FC0
ENDCHAR
STARTCHAR ntilde
ENCODING 241
SWIDTH 873 0
DWIDTH 14 0
BBX 12 15 1 0
BITMAP
0D00
0B00
0000
C030
E030
F030
F830
DC30
CE30
C730
C3B0
C1F0
C0F0
C070
C030
ENDCHAR
STARTCHAR ograve
ENCODING 242
SWIDTH 968 0
DWIDTH 15 0
BBX 14 15 1 0
BITMAP
0C00
0700
0000
1FE0
7FF0
7038
C018
C00C
C00C
C00C
C00C
C018
7038
3FF0
1FE0
ENDCHAR
STARTCHAR oacute
ENCODING 243
SWIDTH 968 0
DWIDTH 15 0
BBX 14 15 1 0
BITMAP
0080
0780
0000
1FE0
7FF0
7038
C018
C00C
C00C
C00C
C00C
C018
7038
3FF0
1FE0
ENDCHAR
STARTCHAR ocircumflex
ENCODING 244
SWIDTH 968 0
DWIDTH 15 0
BBX 14 15 1 0
BITMAP
0300
0500
0080
1FE0
7FF0
7038
C018
C00C
C00C
C00C
C00C
C018
7038
3FF0
1FE0
ENDCHAR
STARTCHAR otilde
ENCODING 245
SWIDTH 968 0
DWIDTH 15 0
BBX 14 15 1 0
BITMAP
0680
0980
0000
1FE0
7FF0
7038
C018
C00C
C00C
C00C
C00C
C018
7038
3FF0
1FE0
ENDCHAR
STARTCHAR odieresis
ENCODING 246
SWIDTH 968 0
DWIDTH 15 0
BBX 14 15 1 0
BITMAP
0D80
0480
0000
1FE0
7FF0
7038
C018
C00C
C00C
C00C
C00C
C018
7038
3FF0
1FE0
ENDCHAR
STARTCHAR divide
ENCODING 247
SWIDTH 690 0
DWIDTH 11 0
BBX 9 10 1 1
BITMAP
1C00
0800
0000
0000
FF80
0000
0000
0000
1C00
0800
ENDCHAR
STARTCHAR oslash
ENCODING 248
SWIDTH 968 0
DWIDTH 15 0
BBX 14 14 1 -1
BITMAP
0018
1FF0
7FF0
7078
C098
C08C
C10C
C20C
C40C
C818
7838
3FF0
3FE0
4000
ENDCHAR
STARTCHAR ugrave
ENCODING 249
SWIDTH 889 0
DWIDTH 14 0
BBX 12 15 1 0
BITMAP
0800
0F00
0000
C030
C030
C030
C030
C030
C030
C030
C030
C030
E070
7FE0
1FC0
ENDCHAR
STARTCHAR uacute
ENCODING 250
SWIDTH 889 0
DWIDTH 14 0
BBX 12 15 1 0
BITMAP
0180
0700
0000
C030
C030
C030
C030
C030
C030
C030
C030
C030
E070
7FE0
1FC0
ENDCHAR
STARTCHAR ucircumflex
ENCODING 251
SWIDTH 889 0
DWIDTH 14 0
BBX 12 15 1 0
BITMAP
0600
0D00
0000
C030
C030
C030
C030
C030
C030
C030
C030
C030
E070
7FE0
1FC0
ENDCHAR
STARTCHAR udieresis
ENCODING 252
SWIDTH 889 0
DWIDTH 14 0
BBX 12 15 1 0
BITMAP
0900
0900
0000
C030
C030
C030
C030
C030
C030
C030
C030
C030
E070
7FE0
1FC0
ENDCHAR
STARTCHAR yacute
ENCODING 253
SWIDTH 926 0
DWIDTH 15 0
BBX 15 15 0 0
BITMAP
0040
0380
0000
E00E
7018
3838
1C70
0EE0
06C0
0380
0300
0300
0300
0300
0300
ENDCHAR
STARTCHAR thorn
ENCODING 254
SWIDTH 843 0
DWIDTH 13 0
BBX 12 12 1 0
BITMAP
C000
C000
FFC0
FFE0
C070
C030
C030
C070
CFE0
CFC0
C000
C000
ENDCHAR
STARTCHAR ydieresis
ENCODING 255
SWIDTH 926 0
DWIDTH 15 0
BBX 15 15 0 0
BITMAP
06C0
06C0
0000
E00E
7018
3838
1C70
0EE0
06C0
0380
0300
0300
0300
0300
0300
ENDCHAR
STARTCHAR Amacron
ENCODING 256
SWIDTH 989 0
DWIDTH 16 0
BBX 16 14 0 0
BITMAP
03C0
0000
0180
0380
03C0
07E0
0660
0C70
1C30
19F8
3BFC
300C
600E
E007
ENDCHAR
STARTCHAR amacron
ENCODING 257
SWIDTH 989 0
DWIDTH 16 0
BBX 16 14 0 0
BITMAP
03C0
0000
0180
0380
03C0
07E0
0660
0C70
1C30
19F8
3BFC
300C
600E
E007
ENDCHAR
STARTCHAR Abreve
ENCODING 258
SWIDTH 989 0
DWIDTH 16 0
BBX 16 15 0 0
BITMAP
0240
03C0
0000
0180
0380
03C0
07E0
0660
0C70
1C30
19F8
3BFC
300C
600E
E007
ENDCHAR
STARTCHAR abreve
ENCODING 259
SWIDTH 989 0
DWIDTH 16 0
BBX 16 15 0 0
BITMAP
0240
03C0
0000
0180
0380
03C0
07E0
0660
0C70
1C30
19F8
3BFC
300C
600E
E007
ENDCHAR
STARTCHAR Aogonek
ENCODING 260
SWIDTH 989 0
DWIDTH 16 0
BBX 16 15 0 -3
BITMAP
0180
0380
03C0
07E0
0660
0C70
1C30
19F8
3BFC
300C
600E
E007
0002
0004
0007
ENDCHAR
STARTCHAR aogonek
ENCODING 261
SWIDTH 989 0
DWIDTH 16 0
BBX 16 15 0 -3
BITMAP
0180
0380
03C0
07E0
0660
0C70
1C30
19F8
3BFC
300C
600E
E007
0002
0004
0007
ENDCHAR
STARTCHAR Cacute
ENCODING 262
SWIDTH 829 0
DWIDTH 13 0
BBX 12 15 1 0
BITMAP
0180
0700
0000
1FF0
7FF0
7000
C000
C000
C000
C000
C000
C000
7000
3FF0
1FF0
ENDCHAR
STARTCHAR cacute
ENCODING 263
SWIDTH 829 0
DWIDTH 13 0
BBX 12 15 1 0
BITMAP
0180
0700
0000
1FF0
7FF0
7000
C000
C000
C000
C000
C000
C000
7000
3FF0
1FF0
ENDCHAR
STARTCHAR Cdotaccent
ENCODING 266
SWIDTH 829 0
DWIDTH 13 0
BBX 12 15 1 0
BITMAP
0200
0200
0000
1FF0
7FF0
7000
C000
C000
C000
C000
C000
C000
7000
3FF0
1FF0
ENDCHAR
STARTCHAR cdotaccent
ENCODING 267
SWIDTH 829 0
DWIDTH 13 0
BBX 12 15 1 0
BITMAP
0200
0200
0000
1FF0
7FF0
7000
C000
C000
C000
C000
C000
C000
7000
3FF0
1FF0
ENDCHAR
STARTCHAR Ccaron
ENCODING 268
SWIDTH 829 0
DWIDTH 13 0
BBX 12 15 1 0
BITMAP
0D80
0600
0000
1FF0
7FF0
7000
C000
C000
C000
C000
C000
C000
7000
3FF0
1FF0
ENDCHAR
STARTCHAR ccaron
ENCODING 269
SWIDTH 829 0
DWIDTH 13 0
BBX 12 15 1 0
BITMAP
0D80
0600
0000
1FF0
7FF0
7000
C000
C000
C000
C000
C000
C000
7000
3FF0
1FF0
ENDCHAR
STARTCHAR Dcaron
ENCODING 270
SWIDTH 879 0
DWIDTH 14 0
BBX 12 15 1 0
BITMAP
1B00
0C00
0000
FF80
FFE0
C0E0
C030
C030
C030
C030
C030
C030
C0E0
FFE0
FF80
ENDCHAR
STARTCHAR dcaron
ENCODING 271
SWIDTH 879 0
DWIDTH 14 0
BBX 12 15 1 0
BITMAP
1B00
0C00
0000
FF80
FFE0
C0E0
C030
C030
C030
C030
C030
C030
C0E0
FFE0
FF80
ENDCHAR
STARTCHAR Dcroat
ENCODING 272
SWIDTH 877 0
DWIDTH 14 0
BBX 13 12 0 0
BITMAP
7FC0
7FF0
6070
6018
6018
FF18
FF18
6018
6018
6070
7FF0
7FC0
ENDCHAR
STARTCHAR dcroat
ENCODING 273
SWIDTH 877 0
DWIDTH 14 0
BBX 13 12 0 0
BITMAP
7FC0
7FF0
6070
6018
6018
FF18
FF18
6018
6018
6070
7FF0
7FC0
ENDCHAR
STARTCHAR Emacron
ENCODING 274
SWIDTH 759 0
DWIDTH 12 0
BBX 10 14 1 0
BITMAP
1E00
0000
FFC0
FFC0
C000
C000
C000
CFC0
CFC0
C000
C000
C000
FFC0
FFC0
ENDCHAR
STARTCHAR emacron
ENCODING 275
SWIDTH 759 0
DWIDTH 12 0
BBX 10 14 1 0
BITMAP
1E00
0000
FFC0
FFC0
C000
C000
C000
CFC0
CFC0
C000
C000
C000
FFC0
FFC0
ENDCHAR
STARTCHAR Ebreve
ENCODING 276
SWIDTH 759 0
DWIDTH 12 0
BBX 10 15 1 0
BITMAP
1200
1E00
0000
FFC0
FFC0
C000
C000
C000
CFC0
CFC0
C000
C000
C000
FFC0
FFC0
ENDCHAR
STARTCHAR ebreve
ENCODING 277
SWIDTH 759 0
DWIDTH 12 0
BBX 10 15 1 0
BITMAP
1200
1E00
0000
FFC0
FFC0
C000
C000
C000
CFC0
CFC0
C000
C000
C000
FFC0
FFC0
ENDCHAR
STARTCHAR Edotaccent
ENCODING 278
SWIDTH 759 0
DWIDTH 12 0
BBX 10 15 1 0
BITMAP
0C00
0C00
0000
FFC0
FFC0
C000
C000
C000
CFC0
CFC0
C000
C000
C000
FFC0
FFC0
ENDCHAR
STARTCHAR edotaccent
ENCODING 279
SWIDTH 759 0
DWIDTH 12 0
BBX 10 15 1 0
BITMAP
0C00
0C00
0000
FFC0
FFC0
C000
C000
C000
CFC0
CFC0
C000
C000
C000
FFC0
FFC0
ENDCHAR
STARTCHAR Eogonek
ENCODING 280
SWIDTH 759 0
DWIDTH 12 0
BBX 10 15 1 -3
BITMAP
FFC0
FFC0
C000
C000
C000
CFC0
CFC0
C000
C000
C000
FFC0
FFC0
0040
0180
00C0
ENDCHAR
STARTCHAR eogonek
ENCODING 281
SWIDTH 759 0
DWIDTH 12 0
BBX 10 15 1 -3
BITMAP
FFC0
FFC0
C000
C000
C000
CFC0
CFC0
C000
C000
C000
FFC0
FFC0
0040
0180
00C0
ENDCHAR
STARTCHAR Ecaron
ENCODING 282
SWIDTH 759 0
DWIDTH 12 0
BBX 10 15 1 0
BITMAP
1A00
0C00
0000
FFC0
FFC0
C000
C000
C000
CFC0
CFC0
C000
C000
C000
FFC0
FFC0
ENDCHAR
STARTCHAR ecaron
ENCODING 283
SWIDTH 759 0
DWIDTH 12 0
BBX 10 15 1 0
BITMAP
1A00
0C00
0000
FFC0
FFC0
C000
C000
C000
CFC0
CFC0
C000
C000
C000
FFC0
FFC0
ENDCHAR
STARTCHAR Gbreve
ENCODING 286
SWIDTH 888 0
DWIDTH 14 0
BBX 12 15 1 0
BITMAP
0C80
0700
0000
1FF0
7FF0
7000
C000
C000
C7F0
C7F0
C030
C030
7030
3FF0
1FF0
ENDCHAR
STARTCHAR gbreve
ENCODING 287
SWIDTH 888 0
DWIDTH 14 0
BBX 12 15 1 0
BITMAP
0C80
0700
0000
1FF0
7FF0
7000
C000
C000
C7F0
C7F0
C030
C030
7030
3FF0
1FF0
ENDCHAR
STARTCHAR Gdotaccent
ENCODING 288
SWIDTH 888 0
DWIDTH 14 0
BBX 12 15 1 0
BITMAP
0300
0200
0000
1FF0
7FF0
7000
C000
C000
C7F0
C7F0
C030
C030
7030
3FF0
1FF0
ENDCHAR
STARTCHAR gdotaccent
ENCODING 289
SWIDTH 888 0
DWIDTH 14 0
BBX 12 15 1 0
BITMAP
0300
0200
0000
1FF0
7FF0
7000
C000
C000
C7F0
C7F0
C030
C030
7030
3FF0
1FF0
ENDCHAR
STARTCHAR Gcommaaccent
ENCODING 290
SWIDTH 888 0
DWIDTH 14 0
BBX 12 16 1 -4
BITMAP
1FF0
7FF0
7000
C000
C000
C7F0
C7F0
C030
C030
7030
3FF0
1FF0
0000
0600
0200
0200
ENDCHAR
STARTCHAR gcommaaccent
ENCODING 291
SWIDTH 888 0
DWIDTH 14 0
BBX 12 16 1 -4
BITMAP
1FF0
7FF0
7000
C000
C000
C7F0
C7F0
C030
C030
7030
3FF0
1FF0
0000
0600
0200
0200
ENDCHAR
STARTCHAR Hbar
ENCODING 294
SWIDTH 838 0
DWIDTH 13 0
BBX 11 12 1 0
BITMAP
C060
C060
CFE0
C060
C060
CFE0
CFE0
C060
C060
C060
C060
C060
ENDCHAR
STARTCHAR hbar
ENCODING 295
SWIDTH 838 0
DWIDTH 13 0
BBX 11 12 1 0
BITMAP
C060
C060
CFE0
C060
C060
CFE0
CFE0
C060
C060
C060
C060
C060
ENDCHAR
STARTCHAR uni012A
ENCODING 298
SWIDTH 267 0
DWIDTH 4 0
BBX 4 14 0 0
BITMAP
F0
00
60
60
60
60
60
60
60
60
60
60
60
60
ENDCHAR
STARTCHAR imacron
ENCODING 299
SWIDTH 267 0
DWIDTH 4 0
BBX 4 14 0 0
BITMAP
F0
00
60
60
60
60
60
60
60
60
60
60
60
60
ENDCHAR
STARTCHAR Ibreve
ENCODING 300
SWIDTH 267 0
DWIDTH 4 0
BBX 4 15 0 0
BITMAP
90
70
00
60
60
60
60
60
60
60
60
60
60
60
60
ENDCHAR
STARTCHAR ibreve
ENCODING 301
SWIDTH 267 0
DWIDTH 4 0
BBX 4 15 0 0
BITMAP
90
70
00
60
60
60
60
60
60
60
60
60
60
60
60
ENDCHAR
STARTCHAR Iogonek
ENCODING 302
SWIDTH 267 0
DWIDTH 4 0
BBX 3 15 0 -3
BITMAP
60
60
60
60
60
60
60
60
60
60
60
60
40
80
E0
ENDCHAR
STARTCHAR iogonek
ENCODING 303
SWIDTH 267 0
DWIDTH 4 0
BBX 3 15 0 -3
BITMAP
60
60
60
60
60
60
60
60
60
60
60
60
40
80
E0
ENDCHAR
STARTCHAR Idotaccent
ENCODING 304
SWIDTH 267 0
DWIDTH 4 0
BBX 2 15 1 0
BITMAP
C0
C0
00
C0
C0
C0
C0
C0
C0
C0
C0
C0
C0
C0
C0
ENDCHAR
STARTCHAR dotlessi
ENCODING 305
SWIDTH 267 0
DWIDTH 4 0
BBX 2 12 1 0
BITMAP
C0
C0
C0
C0
C0
C0
C0
C0
C0
C0
C0
C0
ENDCHAR
STARTCHAR IJ
ENCODING 306
SWIDTH 975 0
DWIDTH 16 0
BBX 14 12 1 0
BITMAP
C00C
C00C
C00C
C00C
C00C
C00C
C00C
C00C
C01C
C038
CFF8
CFE0
ENDCHAR
STARTCHAR ij
ENCODING 307
SWIDTH 975 0
DWIDTH 16 0
BBX 14 12 1 0
BITMAP
C00C
C00C
C00C
C00C
C00C
C00C
C00C
C00C
C01C
C038
CFF8
CFE0
ENDCHAR
STARTCHAR Kcommaaccent
ENCODING 310
SWIDTH 875 0
DWIDTH 14 0
BBX 13 16 1 -4
BITMAP
C070
C1E0
C380
C700
CE00
D800
DC00
CE00
C700
C1C0
C0E0
C078
0000
0600
0400
0400
ENDCHAR
STARTCHAR kcommaaccent
ENCODING 311
SWIDTH 875 0
DWIDTH 14 0
BBX 13 16 1 -4
BITMAP
C070
C1E0
C380
C700
CE00
D800
DC00
CE00
C700
C1C0
C0E0
C078
0000
0600
0400
0400
ENDCHAR
STARTCHAR Lacute
ENCODING 313
SWIDTH 707 0
DWIDTH 11 0
BBX 11 15 0 0
BITMAP
1800
F000
0000
6000
6000
6000
6000
6000
6000
6000
6000
6000
6000
7FE0
7FE0
ENDCHAR
STARTCHAR lacute
ENCODING 314
SWIDTH 707 0
DWIDTH 11 0
BBX 11 15 0 0
BITMAP
1800
F000
0000
6000
6000
6000
6000
6000
6000
6000
6000
6000
6000
7FE0
7FE0
ENDCHAR
STARTCHAR Lcommaaccent
ENCODING 315
SWIDTH 707 0
DWIDTH 11 0
BBX 10 16 1 -4
BITMAP
C000
C000
C000
C000
C000
C000
C000
C000
C000
C000
FFC0
FFC0
0000
0C00
0800
0800
ENDCHAR
STARTCHAR lcommaaccent
ENCODING 316
SWIDTH 707 0
DWIDTH 11 0
BBX 10 16 1 -4
BITMAP
C000
C000
C000
C000
C000
C000
C000
C000
C000
C000
FFC0
FFC0
0000
0C00
0800
0800
ENDCHAR
STARTCHAR Lcaron
ENCODING 317
SWIDTH 707 0
DWIDTH 11 0
BBX 10 12 1 0
BITMAP
CC00
CC00
CC00
C800
C000
C000
C000
C000
C000
C000
FFC0
FFC0
ENDCHAR
STARTCHAR lcaron
ENCODING 318
SWIDTH 707 0
DWIDTH 11 0
BBX 10 12 1 0
BITMAP
CC00
CC00
CC00
C800
C000
C000
C000
C000
C000
C000
FFC0
FFC0
ENDCHAR
STARTCHAR Ldot
ENCODING 319
SWIDTH 707 0
DWIDTH 11 0
BBX 10 12 1 0
BITMAP
C000
C000
C000
C000
C000
D800
C800
C000
C000
C000
FFC0
FFC0
ENDCHAR
STARTCHAR ldot
ENCODING 320
SWIDTH 707 0
DWIDTH 11 0
BBX 10 12 1 0
BITMAP
C000
C000
C000
C000
C000
D800
C800
C000
C000
C000
FFC0
FFC0
ENDCHAR
STARTCHAR Lslash
ENCODING 321
SWIDTH 707 0
DWIDTH 11 0
BBX 10 12 1 0
BITMAP
C000
C000
C000
C200
CC00
FC00
F000
C000
C000
C000
FFC0
FFC0
ENDCHAR
STARTCHAR lslash
ENCODING 322
SWIDTH 707 0
DWIDTH 11 0
BBX 10 12 1 0
BITMAP
C000
C000
C000
C200
CC00
FC00
F000
C000
C000
C000
FFC0
FFC0
ENDCHAR
STARTCHAR Nacute
ENCODING 323
SWIDTH 873 0
DWIDTH 14 0
BBX 12 15 1 0
BITMAP
0180
0F00
0000
C030
E030
F030
F830
DC30
CE30
C730
C3B0
C1F0
C0F0
C070
C030
ENDCHAR
STARTCHAR nacute
ENCODING 324
SWIDTH 873 0
DWIDTH 14 0
BBX 12 15 1 0
BITMAP
0180
0F00
0000
C030
E030
F030
F830
DC30
CE30
C730
C3B0
C1F0
C0F0
C070
C030
ENDCHAR
STARTCHAR Ncommaaccent
ENCODING 325
SWIDTH 873 0
DWIDTH 14 0
BBX 12 16 1 -4
BITMAP
C030
E030
F030
F830
DC30
CE30
C730
C3B0
C1F0
C0F0
C070
C030
0000
0600
0400
0400
ENDCHAR
STARTCHAR ncommaaccent
ENCODING 326
SWIDTH 873 0
DWIDTH 14 0
BBX 12 16 1 -4
BITMAP
C030
E030
F030
F830
DC30
CE30
C730
C3B0
C1F0
C0F0
C070
C030
0000
0600
0400
0400
ENDCHAR
STARTCHAR Ncaron
ENCODING 327
SWIDTH 873 0
DWIDTH 14 0
BBX 12 15 1 0
BITMAP
0900
0600
0000
C030
E030
F030
F830
DC30
CE30
C730
C3B0
C1F0
C0F0
C070
C030
ENDCHAR
STARTCHAR ncaron
ENCODING 328
SWIDTH 873 0
DWIDTH 14 0
BBX 12 15 1 0
BITMAP
0900
0600
0000
C030
E030
F030
F830
DC30
CE30
C730
C3B0
C1F0
C0F0
C070
C030
ENDCHAR
STARTCHAR Eng
ENCODING 330
SWIDTH 873 0
DWIDTH 14 0
BBX 12 15 1 -3
BITMAP
C030
E030
F030
F830
DC30
CE30
C730
C3B0
C1F0
C0F0
C070
C030
0070
07E0
0780
ENDCHAR
STARTCHAR eng
ENCODING 331
SWIDTH 873 0
DWIDTH 14 0
BBX 12 15 1 -3
BITMAP
C030
E030
F030
F830
DC30
CE30
C730
C3B0
C1F0
C0F0
C070
C030
0070
07E0
0780
ENDCHAR
STARTCHAR Omacron
ENCODING 332
SWIDTH 968 0
DWIDTH 15 0
BBX 14 14 1 0
BITMAP
0780
0000
1FE0
7FF0
7038
C018
C00C
C00C
C00C
C00C
C018
7038
3FF0
1FE0
ENDCHAR
STARTCHAR omacron
ENCODING 333
SWIDTH 968 0
DWIDTH 15 0
BBX 14 14 1 0
BITMAP
0780
0000
1FE0
7FF0
7038
C018
C00C
C00C
C00C
C00C
C018
7038
3FF0
1FE0
ENDCHAR
STARTCHAR Obreve
ENCODING 334
SWIDTH 968 0
DWIDTH 15 0
BBX 14 15 1 0
BITMAP
0480
0700
0000
1FE0
7FF0
7038
C018
C00C
C00C
C00C
C00C
C018
7038
3FF0
1FE0
ENDCHAR
STARTCHAR obreve
ENCODING 335
SWIDTH 968 0
DWIDTH 15 0
BBX 14 15 1 0
BITMAP
0480
0700
0000
1FE0
7FF0
7038
C018
C00C
C00C
C00C
C00C
C018
7038
3FF0
1FE0
ENDCHAR
STARTCHAR Ohungarumlaut
ENCODING 336
SWIDTH 968 0
DWIDTH 15 0
BBX 14 15 1 0
BITMAP
02C0
0480
0000
1FE0
7FF0
7038
C018
C00C
C00C
C00C
C00C
C018
7038
3FF0
1FE0
ENDCHAR
STARTCHAR ohungarumlaut
ENCODING 337
SWIDTH 968 0
DWIDTH 15 0
BBX 14 15 1 0
BITMAP
02C0
0480
0000
1FE0
7FF0
7038
C018
C00C
C00C
C00C
C00C
C018
7038
3FF0
1FE0
ENDCHAR
STARTCHAR OE
ENCODING 338
SWIDTH 1304 0
DWIDTH 21 0
BBX 19 12 1 0
BITMAP
1FFFE0
7FFFE0
706000
C06000
C06000
C067E0
C067E0
C06000
C06000
706000
3FFFE0
1FFFE0
ENDCHAR
STARTCHAR oe
ENCODING 339
SWIDTH 1304 0
DWIDTH 21 0
BBX 19 12 1 0
BITMAP
1FFFE0
7FFFE0
706000
C06000
C06000
C067E0
C067E0
C06000
C06000
706000
3FFFE0
1FFFE0
ENDCHAR
STARTCHAR Racute
ENCODING 340
SWIDTH 921 0
DWIDTH 15 0
BBX 14 15 1 0
BITMAP
0100
0F00
0000
FFE0
FFF0
C030
C038
C018
C038
C030
CFF0
CFC0
C0E0
C070
C03C
ENDCHAR
STARTCHAR racute
ENCODING 341
SWIDTH 921 0
DWIDTH 15 0
BBX 14 15 1 0
BITMAP
0100
0F00
0000
FFE0
FFF0
C030
C038
C018
C038
C030
CFF0
CFC0
C0E0
C070
C03C
ENDCHAR
STARTCHAR Rcommaaccent
ENCODING 342
SWIDTH 921 0
DWIDTH 15 0
BBX 14 16 1 -4
BITMAP
FFE0
FFF0
C030
C038
C018
C038
C030
CFF0
CFC0
C0E0
C070
C03C
0000
0600
0200
0200
ENDCHAR
STARTCHAR rcommaaccent
ENCODING 343
SWIDTH 921 0
DWIDTH 15 0
BBX 14 16 1 -4
BITMAP
FFE0
FFF0
C030
C038
C018
C038
C030
CFF0
CFC0
C0E0
C070
C03C
0000
0600
0200
0200
ENDCHAR
STARTCHAR Rcaron
ENCODING 344
SWIDTH 921 0
DWIDTH 15 0
BBX 14 15 1 0
BITMAP
0B00
0600
0000
FFE0
FFF0
C030
C038
C018
C038
C030
CFF0
CFC0
C0E0
C070
C03C
ENDCHAR
STARTCHAR rcaron
ENCODING 345
SWIDTH 921 0
DWIDTH 15 0
BBX 14 15 1 0
BITMAP
0B00
0600
0000
FFE0
FFF0
C030
C038
C018
C038
C030
CFF0
CFC0
C0E0
C070
C03C
ENDCHAR
STARTCHAR Sacute
ENCODING 346
SWIDTH 880 0
DWIDTH 14 0
BBX 12 15 1 0
BITMAP
0180
0F00
0000
7FF0
FFF0
C000
C000
C000
FFE0
7FF0
0030
0030
0030
FFF0
FFE0
ENDCHAR
STARTCHAR sacute
ENCODING 347
SWIDTH 880 0
DWIDTH 14 0
BBX 12 15 1 0
BITMAP
0180
0F00
0000
7FF0
FFF0
C000
C000
C000
FFE0
7FF0
0030
0030
0030
FFF0
FFE0
ENDCHAR
STARTCHAR Scedilla
ENCODING 350
SWIDTH 880 0
DWIDTH 14 0
BBX 12 16 1 -4
BITMAP
7FF0
FFF0
C000
C000
C000
FFE0
7FF0
0030
0030
0030
FFF0
FFE0
0000
0600
0200
0200
ENDCHAR
STARTCHAR scedilla
ENCODING 351
SWIDTH 880 0
DWIDTH 14 0
BBX 12 16 1 -4
BITMAP
7FF0
FFF0
C000
C000
C000
FFE0
7FF0
0030
0030
0030
FFF0
FFE0
0000
0600
0200
0200
ENDCHAR
STARTCHAR Scaron
ENCODING 352
SWIDTH 880 0
DWIDTH 14 0
BBX 12 15 1 0
BITMAP
0D00
0600
0000
7FF0
FFF0
C000
C000
C000
FFE0
7FF0
0030
0030
0030
FFF0
FFE0
ENDCHAR
STARTCHAR scaron
ENCODING 353
SWIDTH 880 0
DWIDTH 14 0
BBX 12 15 1 0
BITMAP
0D00
0600
0000
7FF0
FFF0
C000
C000
C000
FFE0
7FF0
0030
0030
0030
FFF0
FFE0
ENDCHAR
STARTCHAR Tcommaaccent
ENCODING 354
SWIDTH 720 0
DWIDTH 12 0
BBX 11 16 0 -4
BITMAP
FFE0
FFE0
0600
0600
0600
0600
0600
0600
0600
0600
0600
0600
0000
0600
0400
0400
ENDCHAR
STARTCHAR tcommaaccent
ENCODING 355
SWIDTH 720 0
DWIDTH 12 0
BBX 11 16 0 -4
BITMAP
FFE0
FFE0
0600
0600
0600
0600
0600
0600
0600
0600
0600
0600
0000
0600
0400
0400
ENDCHAR
STARTCHAR Tcaron
ENCODING 356
SWIDTH 720 0
DWIDTH 12 0
BBX 11 15 0 0
BITMAP
0B00
0600
0000
FFE0
FFE0
0600
0600
0600
0600
0600
0600
0600
0600
0600
0600
ENDCHAR
STARTCHAR tcaron
ENCODING 357
SWIDTH 720 0
DWIDTH 12 0
BBX 11 15 0 0
BITMAP
0B00
0600
0000
FFE0
FFE0
0600
0600
0600
0600
0600
0600
0600
0600
0600
0600
ENDCHAR
STARTCHAR Tbar
ENCODING 358
SWIDTH 720 0
DWIDTH 12 0
BBX 11 12 0 0
BITMAP
FFE0
FFE0
0600
0600
0600
0600
1F80
0600
0600
0600
0600
0600
ENDCHAR
STARTCHAR tbar
ENCODING 359
SWIDTH 720 0
DWIDTH 12 0
BBX 11 12 0 0
BITMAP
FFE0
FFE0
0600
0600
0600
0600
1F80
0600
0600
0600
0600
0600
ENDCHAR
STARTCHAR Utilde
ENCODING 360
SWIDTH 889 0
DWIDTH 14 0
BBX 12 15 1 0
BITMAP
0C80
0B00
0000
C030
C030
C030
C030
C030
C030
C030
C030
C030
E070
7FE0
1FC0
ENDCHAR
STARTCHAR utilde
ENCODING 361
SWIDTH 889 0
DWIDTH 14 0
BBX 12 15 1 0
BITMAP
0C80
0B00
0000
C030
C030
C030
C030
C030
C030
C030
C030
C030
E070
7FE0
1FC0
ENDCHAR
STARTCHAR Umacron
ENCODING 362
SWIDTH 889 0
DWIDTH 14 0
BBX 12 14 1 0
BITMAP
0F00
0000
C030
C030
C030
C030
C030
C030
C030
C030
C030
E070
7FE0
1FC0
ENDCHAR
STARTCHAR umacron
ENCODING 363
SWIDTH 889 0
DWIDTH 14 0
BBX 12 14 1 0
BITMAP
0F00
0000
C030
C030
C030
C030
C030
C030
C030
C030
C030
E070
7FE0
1FC0
ENDCHAR
STARTCHAR Ubreve
ENCODING 364
SWIDTH 889 0
DWIDTH 14 0
BBX 12 15 1 0
BITMAP
0900
0F00
0000
C030
C030
C030
C030
C030
C030
C030
C030
C030
E070
7FE0
1FC0
ENDCHAR
STARTCHAR ubreve
ENCODING 365
SWIDTH 889 0
DWIDTH 14 0
BBX 12 15 1 0
BITMAP
0900
0F00
0000
C030
C030
C030
C030
C030
C030
C030
C030
C030
E070
7FE0
1FC0
ENDCHAR
STARTCHAR Uring
ENCODING 366
SWIDTH 889 0
DWIDTH 14 0
BBX 12 17 1 0
BITMAP
0700
0900
0900
0700
0000
C030
C030
C030
C030
C030
C030
C030
C030
C030
E070
7FE0
1FC0
ENDCHAR
STARTCHAR uring
ENCODING 367
SWIDTH 889 0
DWIDTH 14 0
BBX 12 17 1 0
BITMAP
0700
0900
0900
0700
0000
C030
C030
C030
C030
C030
C030
C030
C030
C030
E070
7FE0
1FC0
ENDCHAR
STARTCHAR Uhungarumlaut
ENCODING 368
SWIDTH 889 0
DWIDTH 14 0
BBX 12 15 1 0
BITMAP
0580
0900
0000
C030
C030
C030
C030
C030
C030
C030
C030
C030
E070
7FE0
1FC0
ENDCHAR
STARTCHAR uhungarumlaut
ENCODING 369
SWIDTH 889 0
DWIDTH 14 0
BBX 12 15 1 0
BITMAP
0580
0900
0000
C030
C030
C030
C030
C030
C030
C030
C030
C030
E070
7FE0
1FC0
ENDCHAR
STARTCHAR Uogonek
ENCODING 370
SWIDTH 889 0
DWIDTH 14 0
BBX 12 15 1 -3
BITMAP
C030
C030
C030
C030
C030
C030
C030
C030
C030
E070
7FE0
1FC0
0200
0400
0700
ENDCHAR
STARTCHAR uogonek
ENCODING 371
SWIDTH 889 0
DWIDTH 14 0
BBX 12 15 1 -3
BITMAP
C030
C030
C030
C030
C030
C030
C030
C030
C030
E070
7FE0
1FC0
0200
0400
0700
ENDCHAR
STARTCHAR Wcircumflex
ENCODING 372
SWIDTH 1268 0
DWIDTH 20 0
BBX 20 15 0 0
BITMAP
006000
00D000
000000
E38030
618060
31C0E0
30C0C0
18E1C0
186180
0C7380
0EF300
06FF00
079E00
039C00
030C00
ENDCHAR
STARTCHAR wcircumflex
ENCODING 373
SWIDTH 1268 0
DWIDTH 20 0
BBX 20 15 0 0
BITMAP
006000
00D000
000000
E38030
618060
31C0E0
30C0C0
18E1C0
186180
0C7380
0EF300
06FF00
079E00
039C00
030C00
ENDCHAR
STARTCHAR Ycircumflex
ENCODING 374
SWIDTH 926 0
DWIDTH 15 0
BBX 15 15 0 0
BITMAP
0300
0280
0440
E00E
7018
3838
1C70
0EE0
06C0
0380
0300
0300
0300
0300
0300
ENDCHAR
STARTCHAR ycircumflex
ENCODING 375
SWIDTH 926 0
DWIDTH 15 0
BBX 15 15 0 0
BITMAP
0300
0280
0440
E00E
7018
3838
1C70
0EE0
06C0
0380
0300
0300
0300
0300
0300
ENDCHAR
STARTCHAR Ydieresis
ENCODING 376
SWIDTH 926 0
DWIDTH 15 0
BBX 15 15 0 0
BITMAP
06C0
06C0
0000
E00E
7018
3838
1C70
0EE0
06C0
0380
0300
0300
0300
0300
0300
ENDCHAR
STARTCHAR Zacute
ENCODING 377
SWIDTH 802 0
DWIDTH 13 0
BBX 11 15 1 0
BITMAP
0300
0E00
0000
FFE0
FFE0
01C0
0380
0700
0E00
0C00
1800
3000
6000
FFE0
FFE0
ENDCHAR
STARTCHAR zacute
ENCODING 378
SWIDTH 802 0
DWIDTH 13 0
BBX 11 15 1 0
BITMAP
0300
0E00
0000
FFE0
FFE0
01C0
0380
0700
0E00
0C00
1800
3000
6000
FFE0
FFE0
ENDCHAR
STARTCHAR Zdotaccent
ENCODING 379
SWIDTH 802 0
DWIDTH 13 0
BBX 11 15 1 0
BITMAP
0400
0400
0000
FFE0
FFE0
01C0
0380
0700
0E00
0C00
1800
3000
6000
FFE0
FFE0
ENDCHAR
STARTCHAR zdotaccent
ENCODING 380
SWIDTH 802 0
DWIDTH 13 0
BBX 11 15 1 0
BITMAP
0400
0400
0000
FFE0
FFE0
01C0
0380
0700
0E00
0C00
1800
3000
6000
FFE0
FFE0
ENDCHAR
STARTCHAR Zcaron
ENCODING 381
SWIDTH 802 0
DWIDTH 13 0
BBX 11 15 1 0
BITMAP
1A00
0C00
0000
FFE0
FFE0
01C0
0380
0700
0E00
0C00
1800
3000
6000
FFE0
FFE0
ENDCHAR
STARTCHAR zcaron
ENCODING 382
SWIDTH 802 0
DWIDTH 13 0
BBX 11 15 1 0
BITMAP
1A00
0C00
0000
FFE0
FFE0
01C0
0380
0700
0E00
0C00
1800
3000
6000
FFE0
FFE0
ENDCHAR
STARTCHAR Scommaaccent
ENCODING 536
SWIDTH 880 0
DWIDTH 14 0
BBX 12 16 1 -4
BITMAP
7FF0
FFF0
C000
C000
C000
FFE0
7FF0
0030
0030
0030
FFF0
FFE0
0000
0600
0200
0200
ENDCHAR
STARTCHAR scommaaccent
ENCODING 537
SWIDTH 880 0
DWIDTH 14 0
BBX 12 16 1 -4
BITMAP
7FF0
FFF0
C000
C000
C000
FFE0
7FF0
0030
0030
0030
FFF0
FFE0
0000
0600
0200
0200
ENDCHAR
STARTCHAR uni021A
ENCODING 538
SWIDTH 720 0
DWIDTH 12 0
BBX 11 16 0 -4
BITMAP
FFE0
FFE0
0600
0600
0600
0600
0600
0600
0600
0600
0600
0600
0000
0600
0400
0400
ENDCHAR
STARTCHAR uni021B
ENCODING 539
SWIDTH 720 0
DWIDTH 12 0
BBX 11 16 0 -4
BITMAP
FFE0
FFE0
0600
0600
0600
0600
0600
0600
0600
0600
0600
0600
0000
0600
0400
0400
ENDCHAR
ENDFONT
